<mxfile host="app.diagrams.net" modified="2024-04-24T09:39:45.024Z" agent="Mozilla/5.0 (Macintosh; Intel Mac OS X 10_15_7) AppleWebKit/537.36 (KHTML, like Gecko) Chrome/123.0.0.0 Safari/537.36" etag="-omNgdn91O5gS1aZrprc" version="22.1.18" type="github">
  <diagram name="第 1 页" id="ZuhVlxFlhkBg7zVoVy1D">
    <mxGraphModel dx="1429" dy="676" grid="1" gridSize="10" guides="1" tooltips="1" connect="1" arrows="1" fold="1" page="1" pageScale="1" pageWidth="827" pageHeight="1169" math="0" shadow="0">
      <root>
        <mxCell id="0" />
        <mxCell id="1" parent="0" />
        <mxCell id="GPAt1WRh6mztTl92b3K6-2" value="sdk" style="rounded=1;whiteSpace=wrap;html=1;" vertex="1" parent="1">
          <mxGeometry x="120" y="380" width="320" height="40" as="geometry" />
        </mxCell>
        <mxCell id="GPAt1WRh6mztTl92b3K6-3" value="provider" style="rounded=1;whiteSpace=wrap;html=1;" vertex="1" parent="1">
          <mxGeometry x="120" y="310" width="320" height="40" as="geometry" />
        </mxCell>
        <mxCell id="GPAt1WRh6mztTl92b3K6-4" value="产品" style="rounded=1;whiteSpace=wrap;html=1;" vertex="1" parent="1">
          <mxGeometry x="120" y="180" width="320" height="70" as="geometry" />
        </mxCell>
      </root>
    </mxGraphModel>
  </diagram>
</mxfile>
